210 data 940aac0d CD database entry follows (until terminating `.')
# xmcd
#
# Track frame offsets:
#        150
#        15239
#        29625
#        45763
#        61420
#        75862
#        91642
#        108918
#        123698
#        139895
#        153589
#        169239
#        188495
#
# Disc length: 2734 seconds
#
# Revision: 3
# Processed by: cddbd v1.5.2PL0 Copyright (c) Steve Scherf et al.
# Submitted via: ExactAudioCopyFreeDBPlugin 1.0
#
DISCID=940aac0d
DTITLE=Marina & The Diamonds / The Family Jewels
DYEAR=2010
DGENRE=Pop
TTITLE0=Are You Satisfied?
TTITLE1=Shampain
TTITLE2=I Am Not a Robot
TTITLE3=Girls
TTITLE4=Mowgli's Road
TTITLE5=Obsessions
TTITLE6=Hollywood
TTITLE7=The Outsider
TTITLE8=Hermit the Frog
TTITLE9=Oh No!
TTITLE10=Rootless
TTITLE11=Numb
TTITLE12=Guilty
EXTD=
EXTT0=
EXTT1=
EXTT2=
EXTT3=
EXTT4=
EXTT5=
EXTT6=
EXTT7=
EXTT8=
EXTT9=
EXTT10=
EXTT11=
EXTT12=
PLAYORDER=
.
